<svg width="329" height="41" viewBox="0 0 329 41" fill="none" xmlns="http://www.w3.org/2000/svg">
<path d="M251.874 30.9999H237.486L234.822 36.4058H229L244.654 4.05383L260.316 36.4058H254.494L251.874 30.9999ZM240.054 25.6319H249.261L244.654 16.1278L240.054 25.6319Z" fill="white"/>
<path d="M283.248 30.9921H278.016V30.1329H277.957C276.671 30.6929 275.289 30.9775 273.894 30.9692H268.662V9.47478H273.894C275.276 9.46812 276.644 9.75541 277.913 10.3187C277.948 10.3307 277.983 10.346 278.016 10.3644V9.47478H283.248C284.099 9.47312 284.947 9.58038 285.773 9.79412C285.508 9.46718 285.221 9.14784 284.927 8.84371C283.491 7.36424 281.798 6.17769 279.937 5.34621C278.03 4.49175 275.972 4.05673 273.894 4.06885H263.473V36.4132H273.894C275.982 36.4269 278.05 35.9919 279.966 35.1358C281.828 34.3125 283.519 33.1278 284.949 31.6459C285.243 31.3418 285.515 31.0225 285.78 30.6955C284.952 30.908 284.102 31.0128 283.248 31.0073" fill="#04AC8B"/>
<path d="M297.666 13.9835C296.047 10.1 293.05 7.00403 289.291 5.33095C287.385 4.47649 285.327 4.04147 283.249 4.05359H272.827V36.3979H283.249C285.336 36.4079 287.403 35.973 289.32 35.1206C291.182 34.2972 292.873 33.1125 294.303 31.6307C295.724 30.1403 296.865 28.3896 297.666 26.4681C298.482 24.4949 298.903 22.3714 298.903 20.2258C298.903 18.0801 298.482 15.9567 297.666 13.9835ZM292.86 24.3772C292.34 25.6583 291.591 26.8268 290.653 27.8214C289.709 28.8183 288.583 29.6118 287.341 30.1557C286.846 30.3758 286.334 30.5514 285.81 30.6803C284.982 30.8928 284.131 30.9975 283.278 30.992H278.045V9.47473H283.278C284.658 9.471 286.025 9.75549 287.296 10.3111C288.541 10.863 289.673 11.6552 290.63 12.6453C291.593 13.6338 292.36 14.8062 292.89 16.0972C293.424 17.4103 293.699 18.8204 293.699 20.2448C293.699 21.6692 293.424 23.0792 292.89 24.3924" fill="white"/>
<path d="M317.766 4.05356C319.851 4.03729 321.918 4.46432 323.837 5.30811C325.697 6.13817 327.388 7.32496 328.82 8.80561L325.14 12.6073C324.189 11.5863 323.045 10.7782 321.779 10.2328C320.513 9.68738 319.152 9.41642 317.78 9.43669C316.385 9.42847 315.003 9.71301 313.718 10.2731C312.483 10.8078 311.359 11.5821 310.406 12.554C309.454 13.5402 308.688 14.7003 308.147 15.9755C307.6 17.2974 307.318 18.7199 307.318 20.1573C307.318 21.5947 307.6 23.0173 308.147 24.3391C308.675 25.6111 309.423 26.7731 310.354 27.7682C311.302 28.7471 312.427 29.5223 313.666 30.0492C314.959 30.6123 316.349 30.8969 317.751 30.8855C319.117 30.9021 320.473 30.6347 321.737 30.0991C323.002 29.5636 324.149 28.7709 325.111 27.7682L328.791 31.5698C327.361 33.0529 325.669 34.2401 323.808 35.0673C321.883 35.9078 319.815 36.3408 317.725 36.3408C315.636 36.3408 313.567 35.9078 311.642 35.0673C309.787 34.2392 308.097 33.0608 306.66 31.5926C305.227 30.1218 304.078 28.3827 303.274 26.468C302.459 24.4895 302.038 22.3611 302.038 20.2105C302.038 18.06 302.459 15.9316 303.274 13.953C304.884 10.0601 307.88 6.95455 311.642 5.27769C313.566 4.42089 315.641 3.98594 317.736 4.00035" fill="white"/>
<path d="M4.68886 13.9616C1.94747 13.9616 0.576782 12.7757 0.576782 10.4038C0.576782 9.31521 0.901354 8.42139 1.5505 7.72232C2.27954 6.94334 3.31068 6.55386 4.64392 6.55386C5.84733 6.55386 6.91592 6.73112 7.84969 7.08565V12.3662H9.34771V13.9616H4.68886ZM5.88728 8.42639C5.49779 8.24163 5.01093 8.14925 4.4267 8.14925C3.86245 8.14925 3.41554 8.344 3.08597 8.73348C2.7614 9.11298 2.59911 9.60733 2.59911 10.2165C2.59911 11.6496 3.3681 12.3662 4.90607 12.3662H5.88728V8.42639ZM5.71501 5.58763C5.43038 5.58763 5.1907 5.48527 4.99595 5.28054C4.80121 5.0808 4.70384 4.83612 4.70384 4.5465C4.70384 4.25689 4.80121 4.00971 4.99595 3.80498C5.19569 3.60025 5.43537 3.49789 5.71501 3.49789C5.99963 3.49789 6.23931 3.60025 6.43406 3.80498C6.6288 4.00472 6.72617 4.25189 6.72617 4.5465C6.72617 4.83113 6.6288 5.07581 6.43406 5.28054C6.23931 5.48527 5.99963 5.58763 5.71501 5.58763ZM3.16836 5.58763C2.88374 5.58763 2.64406 5.48527 2.44931 5.28054C2.25457 5.0808 2.1572 4.83612 2.1572 4.5465C2.1572 4.25689 2.25457 4.00971 2.44931 3.80498C2.64905 3.60025 2.88873 3.49789 3.16836 3.49789C3.45798 3.49789 3.70266 3.60025 3.9024 3.80498C4.09714 4.00472 4.19451 4.25189 4.19451 4.5465C4.19451 4.83113 4.09714 5.07581 3.9024 5.28054C3.70266 5.48527 3.45798 5.58763 3.16836 5.58763Z" fill="white"/>
<path d="M9.12301 12.3662H13.6396V13.9616H9.12301V12.3662Z" fill="white"/>
<path d="M13.4673 12.3662H15.6169V6.7486H17.6393V12.3662H19.729V13.9616H13.4673V12.3662ZM15.7967 16.2611C15.7967 16.5507 15.6993 16.7953 15.5046 16.9951C15.3049 17.1998 15.0602 17.3022 14.7706 17.3022C14.4859 17.3022 14.2463 17.2023 14.0515 17.0026C13.8568 16.8028 13.7594 16.5557 13.7594 16.2611C13.7594 15.9764 13.8568 15.7318 14.0515 15.527C14.2512 15.3223 14.4909 15.2199 14.7706 15.2199C15.0602 15.2199 15.3049 15.3198 15.5046 15.5195C15.6993 15.7243 15.7967 15.9714 15.7967 16.2611ZM18.3284 16.2611C18.3284 16.5457 18.231 16.7904 18.0363 16.9951C17.8365 17.1998 17.5968 17.3022 17.3172 17.3022C17.0326 17.3022 16.7929 17.2023 16.5982 17.0026C16.4034 16.8028 16.306 16.5557 16.306 16.2611C16.306 15.9764 16.4034 15.7318 16.5982 15.527C16.7979 15.3223 17.0376 15.2199 17.3172 15.2199C17.6018 15.2199 17.8415 15.3198 18.0363 15.5195C18.231 15.7243 18.3284 15.9714 18.3284 16.2611Z" fill="white"/>
<path d="M19.4893 12.3662H24.0059V13.9616H19.4893V12.3662Z" fill="white"/>
<path d="M23.8336 12.3662H28.3502V13.9616H23.8336V12.3662Z" fill="white"/>
<path d="M29.0542 4.38921C29.4337 4.38921 29.7183 4.40918 29.9081 4.44913C29.7183 4.35426 29.6235 4.15452 29.6235 3.84992C29.6235 3.37055 29.7908 2.97857 30.1253 2.67397C30.5198 2.31445 31.0915 2.13468 31.8405 2.13468C32.0902 2.13468 32.3923 2.15965 32.7469 2.20959L32.5671 3.36306C32.3124 3.31313 32.0553 3.28816 31.7956 3.28816C31.3063 3.28816 31.0616 3.46044 31.0616 3.80498C31.0616 4.19447 31.4136 4.38921 32.1177 4.38921H32.994V5.54269H29.0542V4.38921ZM28.1779 12.3662H30.3275V6.7486H32.3499V13.9616H28.1779V12.3662Z" fill="white"/>
<path d="M34.7842 3.14585H36.8065V12.3662H38.342V13.9616H34.7842V3.14585Z" fill="white"/>
<path d="M38.1098 12.3662H42.6263V13.9616H38.1098V12.3662Z" fill="white"/>
<path d="M42.4541 12.3662H46.9706V13.9616H42.4541V12.3662Z" fill="white"/>
<path d="M52.6032 13.9616C50.9503 13.9616 49.8044 13.5621 49.1652 12.7632C48.8556 13.5621 48.0442 13.9616 46.7309 13.9616H46.4987V12.3662C47.0979 12.3662 47.5398 12.2189 47.8245 11.9243C48.1391 11.5997 48.2963 11.0504 48.2963 10.2764C48.2963 9.23782 48.6259 8.37396 49.285 7.68486C50.0141 6.93086 51.0128 6.55386 52.2811 6.55386C54.593 6.55386 55.749 7.72981 55.749 10.0817V12.3662H57.0373V13.9616H52.6032ZM53.7716 10.3289C53.7716 8.87579 53.2248 8.14925 52.1313 8.14925C51.567 8.14925 51.1176 8.344 50.7831 8.73348C50.4635 9.11298 50.3037 9.60733 50.3037 10.2165C50.3037 11.6496 51.0702 12.3662 52.6032 12.3662H53.7716V10.3289Z" fill="white"/>
<path d="M56.8051 12.3662H61.3217V13.9616H56.8051V12.3662Z" fill="white"/>
<path d="M61.1494 12.3662H65.6659V13.9616H61.1494V12.3662Z" fill="white"/>
<path d="M68.6545 5.4603C68.3599 5.4603 68.1102 5.36043 67.9055 5.16069C67.7008 4.95596 67.5984 4.7038 67.5984 4.40419C67.5984 4.11457 67.7008 3.8649 67.9055 3.65518C68.1152 3.45045 68.3649 3.34808 68.6545 3.34808C68.9441 3.34808 69.1938 3.45045 69.4035 3.65518C69.6082 3.8649 69.7106 4.11457 69.7106 4.40419C69.7106 4.69381 69.6082 4.94348 69.4035 5.1532C69.1938 5.35793 68.9441 5.4603 68.6545 5.4603ZM65.4937 12.3662H67.6433V6.7486H69.6657V13.9616H65.4937V12.3662Z" fill="white"/>
<path d="M75.1409 11.2127H73.0886L70.894 3.31812L72.9014 3.04099L75.1409 11.2127ZM71.5232 13.9616V12.3662H76.2645V3.14585H78.2868V13.9616H71.5232ZM72.4445 16.9202C72.809 16.9202 73.0787 16.9402 73.2534 16.9801C73.0837 16.8503 72.9988 16.658 72.9988 16.4034C72.9988 15.9939 73.171 15.6544 73.5156 15.3847C73.9051 15.0801 74.4419 14.9278 75.126 14.9278C75.5154 14.9278 75.8176 14.9578 76.0323 15.0177L75.8525 16.0663C75.493 16.0114 75.2358 15.9839 75.081 15.9839C74.6216 15.9839 74.3919 16.1337 74.3919 16.4333C74.3919 16.7579 74.719 16.9202 75.3731 16.9202H76.3094V17.9988H72.4445V16.9202Z" fill="white"/>
<path d="M80.8784 3.14585H82.9007V13.9616H80.8784V3.14585Z" fill="white"/>
<path d="M93.5966 13.9616C91.5942 13.9616 90.1337 13.5546 89.2149 12.7407C88.381 12.0067 87.964 10.9006 87.964 9.42257C87.964 8.54373 88.0964 7.73979 88.361 7.01075L90.5257 6.65872C90.1761 7.42271 90.0013 8.2666 90.0013 9.19038C90.0013 10.3039 90.2785 11.1029 90.8327 11.5872C91.417 12.1065 92.4082 12.3662 93.8063 12.3662H95.8961V6.7486H97.9184V13.9616H93.5966ZM94.6377 5.58763C94.3531 5.58763 94.1134 5.48527 93.9187 5.28054C93.7239 5.0808 93.6266 4.83612 93.6266 4.5465C93.6266 4.25689 93.7239 4.00971 93.9187 3.80498C94.1134 3.60025 94.3531 3.49789 94.6377 3.49789C94.9223 3.49789 95.162 3.60025 95.3568 3.80498C95.5515 4.00472 95.6489 4.25189 95.6489 4.5465C95.6489 4.83113 95.5515 5.07581 95.3568 5.28054C95.157 5.48527 94.9174 5.58763 94.6377 5.58763ZM92.0911 5.58763C91.8065 5.58763 91.5668 5.48527 91.372 5.28054C91.1773 5.0808 91.0799 4.83612 91.0799 4.5465C91.0799 4.25689 91.1773 4.00971 91.372 3.80498C91.5668 3.60025 91.8065 3.49789 92.0911 3.49789C92.3807 3.49789 92.6254 3.60025 92.8251 3.80498C93.0199 4.00472 93.1172 4.25189 93.1172 4.5465C93.1172 4.83113 93.0199 5.07581 92.8251 5.28054C92.6254 5.48527 92.3807 5.58763 92.0911 5.58763Z" fill="white"/>
<path d="M100.368 3.14585H102.39V13.9616H100.368V3.14585Z" fill="white"/>
<path d="M103.963 17.8564C103.514 17.8564 103.084 17.8065 102.675 17.7066L102.824 16.0963C103.249 16.2161 103.663 16.276 104.068 16.276C104.622 16.276 105.029 16.1262 105.289 15.8266C105.583 15.4871 105.731 14.9228 105.731 14.1339V6.7486H107.753V14.0215C107.753 16.5781 106.49 17.8564 103.963 17.8564Z" fill="white"/>
<path d="M110.195 3.14585H112.217V12.3662H113.753V13.9616H110.195V3.14585Z" fill="white"/>
<path d="M113.52 12.3662H118.037V13.9616H113.52V12.3662Z" fill="white"/>
<path d="M117.865 12.3662H122.381V13.9616H117.865V12.3662Z" fill="white"/>
<path d="M122.209 12.3662H126.725V13.9616H122.209V12.3662Z" fill="white"/>
<path d="M126.553 12.3662H127.317C127.826 12.3662 128.181 12.2364 128.381 11.9767C128.595 11.7021 128.703 11.1977 128.703 10.4637V7.66988H130.725V10.5086C130.725 11.2477 130.788 11.7495 130.912 12.0142C131.057 12.3287 131.347 12.486 131.781 12.486C132.6 12.486 133.01 11.8319 133.01 10.5236V7.05569H134.957V10.9056C134.957 11.5048 135.082 11.8993 135.332 12.0891C135.571 12.2738 136.051 12.3662 136.77 12.3662H137.167C137.242 11.7919 137.279 11.1778 137.279 10.5236C137.279 9.11048 137.129 7.73979 136.83 6.41154L138.807 6.1419C139.137 7.51509 139.301 8.93072 139.301 10.3888C139.301 10.958 139.276 11.6172 139.226 12.3662H140.724V13.9616H136.537C135.704 13.9616 135.084 13.8917 134.68 13.7519C134.245 13.5971 133.918 13.3149 133.699 12.9055C133.334 13.6894 132.563 14.0814 131.384 14.0814C130.291 14.0814 129.612 13.6845 129.347 12.8905C129.032 13.6046 128.351 13.9616 127.302 13.9616H126.553V12.3662ZM135.189 5.58763C134.9 5.58763 134.655 5.48527 134.455 5.28054C134.26 5.0808 134.163 4.83612 134.163 4.5465C134.163 4.25689 134.26 4.00971 134.455 3.80498C134.655 3.60025 134.9 3.49789 135.189 3.49789C135.474 3.49789 135.714 3.60025 135.908 3.80498C136.103 4.00472 136.2 4.25189 136.2 4.5465C136.2 4.83113 136.103 5.07581 135.908 5.28054C135.709 5.48527 135.469 5.58763 135.189 5.58763ZM132.643 5.58763C132.358 5.58763 132.118 5.48527 131.924 5.28054C131.729 5.0808 131.631 4.83612 131.631 4.5465C131.631 4.25689 131.729 4.00971 131.924 3.80498C132.123 3.60025 132.363 3.49789 132.643 3.49789C132.927 3.49789 133.167 3.60025 133.362 3.80498C133.556 4.00472 133.654 4.25189 133.654 4.5465C133.654 4.83113 133.556 5.07581 133.362 5.28054C133.167 5.48527 132.927 5.58763 132.643 5.58763ZM133.901 3.40801C133.641 3.40801 133.419 3.31313 133.234 3.12338C133.055 2.93862 132.965 2.71142 132.965 2.44178C132.965 2.17214 133.055 1.94493 133.234 1.76018C133.419 1.57043 133.641 1.47555 133.901 1.47555C134.171 1.47555 134.395 1.57043 134.575 1.76018C134.76 1.94493 134.852 2.17214 134.852 2.44178C134.852 2.71142 134.76 2.93862 134.575 3.12338C134.395 3.31313 134.171 3.40801 133.901 3.40801Z" fill="white"/>
<path d="M140.5 12.3662H145.016V13.9616H140.5V12.3662Z" fill="white"/>
<path d="M144.844 12.3662H149.361V13.9616H144.844V12.3662Z" fill="white"/>
<path d="M149.188 12.3662H151.338V6.7486H153.36V12.3662H154.723V13.9616H149.188V12.3662ZM150.784 5.58763C150.499 5.58763 150.259 5.48527 150.065 5.28054C149.87 5.0808 149.773 4.83612 149.773 4.5465C149.773 4.25689 149.87 4.00971 150.065 3.80498C150.264 3.60025 150.504 3.49789 150.784 3.49789C151.073 3.49789 151.318 3.60025 151.518 3.80498C151.712 4.00472 151.81 4.25189 151.81 4.5465C151.81 4.83113 151.712 5.07581 151.518 5.28054C151.318 5.48527 151.073 5.58763 150.784 5.58763ZM153.33 5.58763C153.046 5.58763 152.806 5.48527 152.611 5.28054C152.417 5.0808 152.319 4.83612 152.319 4.5465C152.319 4.25689 152.417 4.00971 152.611 3.80498C152.811 3.60025 153.051 3.49789 153.33 3.49789C153.615 3.49789 153.855 3.60025 154.049 3.80498C154.244 4.00472 154.341 4.25189 154.341 4.5465C154.341 4.83113 154.244 5.07581 154.049 5.28054C153.85 5.48527 153.61 5.58763 153.33 5.58763Z" fill="white"/>
<path d="M154.491 12.3662H159.008V13.9616H154.491V12.3662Z" fill="white"/>
<path d="M158.836 12.3662H163.352V13.9616H158.836V12.3662Z" fill="white"/>
<path d="M163.18 12.3662H163.944C164.453 12.3662 164.808 12.2364 165.007 11.9767C165.222 11.7021 165.329 11.1977 165.329 10.4637V7.66988H167.352V10.5086C167.352 11.2477 167.414 11.7495 167.539 12.0142C167.684 12.3287 167.974 12.486 168.408 12.486C169.227 12.486 169.636 11.8319 169.636 10.5236V7.05569H171.584V10.9056C171.584 11.5048 171.709 11.8993 171.958 12.0891C172.198 12.2738 172.677 12.3662 173.396 12.3662H173.793C173.868 11.7919 173.906 11.1778 173.906 10.5236C173.906 9.11048 173.756 7.73979 173.456 6.41154L175.434 6.1419C175.763 7.51509 175.928 8.93072 175.928 10.3888C175.928 11.6821 175.851 12.873 175.696 13.9616H173.164C172.33 13.9616 171.711 13.8917 171.307 13.7519C170.872 13.5971 170.545 13.3149 170.325 12.9055C169.961 13.6894 169.189 14.0814 168.011 14.0814C166.917 14.0814 166.238 13.6845 165.974 12.8905C165.659 13.6046 164.977 13.9616 163.929 13.9616H163.18V12.3662Z" fill="white"/>
<path d="M177.044 13.9616V12.3662H181.785V3.14585H183.808V12.3662H185.328V13.9616H177.044ZM180.662 11.2127H178.609L176.415 3.31812L178.422 3.04099L180.662 11.2127Z" fill="white"/>
<path d="M185.096 12.3662H186.998V3.14585H189.021V13.9616H185.096V12.3662Z" fill="white"/>
<path d="M197.949 6.49394C198.333 6.49394 198.621 6.51391 198.81 6.55386C198.616 6.45399 198.518 6.25425 198.518 5.95465C198.518 5.47528 198.688 5.0808 199.028 4.77121C199.422 4.41668 199.994 4.23941 200.743 4.23941C200.987 4.23941 201.29 4.26438 201.649 4.31431L201.462 5.4603C201.207 5.41036 200.953 5.3854 200.698 5.3854C200.203 5.3854 199.956 5.56017 199.956 5.90971C199.956 6.29919 200.311 6.49394 201.02 6.49394H201.889V7.63992H197.949V6.49394ZM199.717 13.9616C197.714 13.9616 196.254 13.5546 195.335 12.7407C194.501 12.0067 194.084 10.9006 194.084 9.42257C194.084 8.54373 194.216 7.73979 194.481 7.01075L196.646 6.65872C196.296 7.42271 196.121 8.2666 196.121 9.19038C196.121 10.3039 196.399 11.1029 196.953 11.5872C197.537 12.1065 198.528 12.3662 199.926 12.3662H203.132V3.14585H205.162V13.9616H199.717Z" fill="white"/>
<path d="M206.952 12.3662H211.506C211.416 10.0942 210.21 8.66357 207.888 8.07435L208.375 6.38158C210.093 6.83598 211.361 7.56502 212.18 8.5687C213.049 9.63729 213.483 11.0979 213.483 12.9504V13.9616H206.952V12.3662Z" fill="white"/>
<path d="M214.959 3.14585H216.981V13.9616H214.959V3.14585ZM213.349 1.22838L214.959 0.0299605C215.388 0.429434 215.87 0.62917 216.405 0.62917C216.959 0.62917 217.491 0.419447 218 0V1.47555C217.521 1.86504 216.956 2.05978 216.307 2.05978C215.753 2.05978 215.299 1.895 214.944 1.56544L214.053 2.19461L213.349 1.22838Z" fill="white"/>
<path d="M7.00492 36.2632L6.15316 33.6099H1.81256L0.933535 36.2632H0L3.54335 25.8457H4.51095L8.04067 36.2632H7.00492ZM4.40874 28.3107C4.22249 27.7478 4.08393 27.2855 3.99308 26.9237H3.97945C3.87042 27.3006 3.7296 27.7529 3.55697 28.2805L2.06468 32.8033H5.8874L4.40874 28.3107Z" fill="white"/>
<path d="M17.1171 30.9716C17.1171 32.7053 16.6174 34.042 15.618 34.9818C14.6822 35.8662 13.4147 36.3085 11.8157 36.3085C11.5113 36.3085 11.1025 36.2984 10.5892 36.2783C10.144 36.2632 9.81688 36.2582 9.60792 36.2632V25.8457L12.245 25.793C15.493 25.793 17.1171 27.5192 17.1171 30.9716ZM16.1835 31.0319C16.1835 28.077 14.8344 26.5995 12.136 26.5995C11.8543 26.5995 11.3092 26.6146 10.5006 26.6448V35.3813C10.9912 35.4567 11.4704 35.4943 11.9383 35.4943C13.2467 35.4943 14.2688 35.135 15.0047 34.4164C15.7906 33.6475 16.1835 32.5194 16.1835 31.0319Z" fill="white"/>
<path d="M26.5887 30.9716C26.5887 32.7053 26.089 34.042 25.0896 34.9818C24.1538 35.8662 22.8864 36.3085 21.2873 36.3085C20.983 36.3085 20.5741 36.2984 20.0608 36.2783C19.6156 36.2632 19.2885 36.2582 19.0796 36.2632V25.8457L21.7166 25.793C24.9647 25.793 26.5887 27.5192 26.5887 30.9716ZM25.6552 31.0319C25.6552 28.077 24.306 26.5995 21.6076 26.5995C21.3259 26.5995 20.7808 26.6146 19.9722 26.6448V35.3813C20.4628 35.4567 20.9421 35.4943 21.41 35.4943C22.7183 35.4943 23.7404 35.135 24.4763 34.4164C25.2622 33.6475 25.6552 32.5194 25.6552 31.0319Z" fill="white"/>
<path d="M35.1473 35.7657C34.3114 36.1677 33.4074 36.3688 32.4352 36.3688C31.0497 36.3688 29.9958 35.9165 29.2735 35.0119C28.5739 34.1325 28.2241 32.8812 28.2241 31.258C28.2241 29.5997 28.5762 28.2906 29.2803 27.3307C30.0662 26.2654 31.2269 25.7327 32.7623 25.7327C33.5437 25.7327 34.291 25.8508 35.0042 26.087L34.8406 26.9991C34.1002 26.7126 33.3415 26.5694 32.5647 26.5694C31.4245 26.5694 30.5591 27.0192 29.9685 27.9187C29.4461 28.7127 29.1849 29.7705 29.1849 31.0922C29.1849 34.037 30.3569 35.5094 32.701 35.5094C33.5051 35.5094 34.2592 35.3134 34.9633 34.9215L35.1473 35.7657Z" fill="white"/>
<path d="M43.8421 25.891C43.5105 25.7754 43.1334 25.7176 42.7109 25.7176C41.6207 25.7176 41.0756 26.489 41.0756 28.0318V28.5896H43.2152V29.366H41.0756V36.2632H40.1965V29.366H38.6088V28.5896H40.1965V28.0695C40.1965 25.9689 41.0574 24.9186 42.7791 24.9186C43.1652 24.9186 43.5468 24.9638 43.9239 25.0543L43.8421 25.891Z" fill="white"/>
<path d="M50.1656 32.3133C50.1656 33.4691 49.8749 34.4265 49.2934 35.1853C48.6847 35.9843 47.8851 36.3838 46.8948 36.3838C45.9499 36.3838 45.2185 36.0647 44.7007 35.4265C44.1555 34.7531 43.883 33.7606 43.883 32.449C43.883 31.3284 44.1646 30.3962 44.7279 29.6524C45.3321 28.8634 46.1339 28.469 47.1333 28.469C48.0282 28.469 48.7346 28.7529 49.2525 29.3208C49.8612 29.9791 50.1656 30.9766 50.1656 32.3133ZM49.2525 32.3586C49.2525 31.3786 49.0662 30.6198 48.6937 30.0821C48.3121 29.5293 47.7602 29.2529 47.0379 29.2529C46.4156 29.2529 45.8977 29.5042 45.4843 30.0067C45.0209 30.5746 44.7892 31.3635 44.7892 32.3736C44.7892 33.3938 44.9869 34.1827 45.3821 34.7406C45.7773 35.3034 46.3338 35.5848 47.0515 35.5848C47.6739 35.5848 48.185 35.3285 48.5847 34.8159C49.0299 34.238 49.2525 33.4189 49.2525 32.3586Z" fill="white"/>
<path d="M55.2149 29.4263C53.6612 29.1499 52.8844 30.4087 52.8844 33.2028V36.2632H52.0054V28.5896H52.8981C52.8981 29.273 52.8367 29.9414 52.7141 30.5947L52.7481 30.6097C53.1207 29.0067 53.9565 28.2981 55.2557 28.484L55.2149 29.4263Z" fill="white"/>
<path d="M67.1736 30.9716C67.1736 32.7053 66.6739 34.042 65.6745 34.9818C64.7387 35.8662 63.4713 36.3085 61.8723 36.3085C61.5679 36.3085 61.159 36.2984 60.6457 36.2783C60.2005 36.2632 59.8734 36.2582 59.6645 36.2632V25.8457L62.3015 25.793C65.5496 25.793 67.1736 27.5192 67.1736 30.9716ZM66.2401 31.0319C66.2401 28.077 64.8909 26.5995 62.1925 26.5995C61.9109 26.5995 61.3657 26.6146 60.5571 26.6448V35.3813C61.0477 35.4567 61.527 35.4943 61.9949 35.4943C63.3032 35.4943 64.3253 35.135 65.0613 34.4164C65.8472 33.6475 66.2401 32.5194 66.2401 31.0319Z" fill="white"/>
<path d="M74.2672 31.5369C74.2672 31.8083 74.2581 32.0344 74.2399 32.2153H69.5381C69.47 34.4415 70.265 35.5547 71.9231 35.5547C72.6318 35.5547 73.2836 35.4039 73.8787 35.1024L74.0491 35.924C73.3586 36.2306 72.5863 36.3838 71.7323 36.3838C69.6472 36.3838 68.6046 35.0722 68.6046 32.449C68.6046 31.2831 68.8681 30.3334 69.3951 29.5997C69.9447 28.8459 70.6806 28.469 71.6028 28.469C72.4977 28.469 73.1792 28.7755 73.6471 29.3886C74.0605 29.9313 74.2672 30.6474 74.2672 31.5369ZM73.3336 31.4766C73.3472 30.7831 73.1951 30.2379 72.8771 29.8409C72.5591 29.4388 72.1162 29.2378 71.5483 29.2378C71.0259 29.2378 70.5921 29.4313 70.2468 29.8183C69.8925 30.2153 69.6699 30.768 69.579 31.4766H73.3336Z" fill="white"/>
<path d="M78.8258 36.2632H77.865L75.2552 28.5896H76.2569L77.9877 33.9792C78.1557 34.5169 78.2829 34.9541 78.3693 35.2908H78.3829C78.4874 34.9039 78.6123 34.4817 78.7577 34.0244L80.5293 28.5896H81.4901L78.8258 36.2632Z" fill="white"/>
<path d="M87.8954 31.5369C87.8954 31.8083 87.8863 32.0344 87.8681 32.2153H83.1664C83.0983 34.4415 83.8932 35.5547 85.5513 35.5547C86.26 35.5547 86.9119 35.4039 87.507 35.1024L87.6774 35.924C86.9869 36.2306 86.2146 36.3838 85.3605 36.3838C83.2754 36.3838 82.2329 35.0722 82.2329 32.449C82.2329 31.2831 82.4963 30.3334 83.0233 29.5997C83.573 28.8459 84.3089 28.469 85.2311 28.469C86.126 28.469 86.8074 28.7755 87.2753 29.3886C87.6887 29.9313 87.8954 30.6474 87.8954 31.5369ZM86.9619 31.4766C86.9755 30.7831 86.8233 30.2379 86.5053 29.8409C86.1873 29.4388 85.7444 29.2378 85.1766 29.2378C84.6542 29.2378 84.2203 29.4313 83.8751 29.8183C83.5207 30.2153 83.2981 30.768 83.2073 31.4766H86.9619Z" fill="white"/>
<path d="M89.8919 36.2632V24.994H90.771V36.2632H89.8919Z" fill="white"/>
<path d="M99.0229 32.3133C99.0229 33.4691 98.7321 34.4265 98.1507 35.1853C97.5419 35.9843 96.7424 36.3838 95.7521 36.3838C94.8072 36.3838 94.0758 36.0647 93.5579 35.4265C93.0128 34.7531 92.7402 33.7606 92.7402 32.449C92.7402 31.3284 93.0219 30.3962 93.5852 29.6524C94.1894 28.8634 94.9912 28.469 95.9906 28.469C96.8855 28.469 97.5919 28.7529 98.1098 29.3208C98.7185 29.9791 99.0229 30.9766 99.0229 32.3133ZM98.1098 32.3586C98.1098 31.3786 97.9235 30.6198 97.551 30.0821C97.1694 29.5293 96.6175 29.2529 95.8952 29.2529C95.2728 29.2529 94.755 29.5042 94.3416 30.0067C93.8782 30.5746 93.6465 31.3635 93.6465 32.3736C93.6465 33.3938 93.8441 34.1827 94.2394 34.7406C94.6346 35.3034 95.1911 35.5848 95.9088 35.5848C96.5312 35.5848 97.0422 35.3285 97.442 34.8159C97.8872 34.238 98.1098 33.4189 98.1098 32.3586Z" fill="white"/>
<path d="M106.668 32.0796C106.668 33.4465 106.348 34.5044 105.708 35.2531C105.085 35.9768 104.233 36.3386 103.152 36.3386C102.63 36.3386 102.169 36.3085 101.769 36.2481V40.1377H100.89V28.5896H101.783C101.783 29.3685 101.742 29.9565 101.66 30.3535L101.687 30.3685C102.114 29.1022 102.918 28.469 104.099 28.469C105.812 28.469 106.668 29.6725 106.668 32.0796ZM105.748 32.1701C105.748 30.2253 105.153 29.2529 103.963 29.2529C103.277 29.2529 102.725 29.6323 102.307 30.3911C101.948 31.0394 101.769 31.7605 101.769 32.5545V35.3511C102.164 35.5069 102.648 35.5848 103.22 35.5848C104.906 35.5848 105.748 34.4466 105.748 32.1701Z" fill="white"/>
<path d="M117.38 36.2632V31.2957C117.38 30.6223 117.292 30.1273 117.114 29.8107C116.905 29.4388 116.549 29.2529 116.045 29.2529C115.445 29.2529 114.934 29.5519 114.511 30.1499C114.062 30.7881 113.837 31.6173 113.837 32.6375V36.2632H112.958V31.2731C112.958 30.6349 112.878 30.1625 112.719 29.8559C112.51 29.4539 112.145 29.2529 111.622 29.2529C111.004 29.2529 110.487 29.567 110.069 30.1952C109.642 30.8384 109.428 31.6525 109.428 32.6375V36.2632H108.549V28.5896H109.442C109.442 29.2881 109.401 29.8861 109.319 30.3836L109.346 30.3987C109.773 29.1122 110.6 28.469 111.827 28.469C112.544 28.469 113.074 28.7152 113.414 29.2077C113.651 29.5494 113.769 29.9364 113.769 30.3685C113.923 29.8962 114.177 29.4891 114.532 29.1474C115.004 28.6951 115.563 28.469 116.208 28.469C117.575 28.469 118.259 29.2906 118.259 30.9339V36.2632H117.38Z" fill="white"/>
<path d="M125.877 31.5369C125.877 31.8083 125.868 32.0344 125.85 32.2153H121.148C121.08 34.4415 121.875 35.5547 123.533 35.5547C124.242 35.5547 124.894 35.4039 125.489 35.1024L125.659 35.924C124.969 36.2306 124.197 36.3838 123.342 36.3838C121.257 36.3838 120.215 35.0722 120.215 32.449C120.215 31.2831 120.478 30.3334 121.005 29.5997C121.555 28.8459 122.291 28.469 123.213 28.469C124.108 28.469 124.789 28.7755 125.257 29.3886C125.671 29.9313 125.877 30.6474 125.877 31.5369ZM124.944 31.4766C124.957 30.7831 124.805 30.2379 124.487 29.8409C124.169 29.4388 123.726 29.2378 123.159 29.2378C122.636 29.2378 122.202 29.4313 121.857 29.8183C121.503 30.2153 121.28 30.768 121.189 31.4766H124.944Z" fill="white"/>
<path d="M132.453 36.2632V31.2957C132.453 29.9338 131.983 29.2529 131.042 29.2529C130.388 29.2529 129.852 29.5695 129.434 30.2027C129.016 30.8309 128.807 31.6324 128.807 32.6073V36.2632H127.928V28.5896H128.821C128.821 29.3032 128.78 29.9012 128.698 30.3836L128.726 30.3987C129.153 29.1122 129.989 28.469 131.233 28.469C132.632 28.469 133.332 29.2856 133.332 30.9188V36.2632H132.453Z" fill="white"/>
<path d="M139.158 36.218C138.74 36.3185 138.297 36.3688 137.829 36.3688C137.175 36.3688 136.719 36.1929 136.46 35.8411C136.219 35.5094 136.099 34.9441 136.099 34.1451V29.366H134.511V28.5896H136.099V25.9965L136.964 25.7327V28.5896H139.104V29.366H136.964V33.6702C136.964 34.3988 137.041 34.8888 137.196 35.1401C137.346 35.3863 137.636 35.5094 138.068 35.5094C138.427 35.5094 138.749 35.4667 139.035 35.3813L139.158 36.218Z" fill="white"/>
<path d="M150.02 35.7657C149.184 36.1677 148.28 36.3688 147.308 36.3688C145.922 36.3688 144.868 35.9165 144.146 35.0119C143.446 34.1325 143.097 32.8812 143.097 31.258C143.097 29.5997 143.449 28.2906 144.153 27.3307C144.939 26.2654 146.099 25.7327 147.635 25.7327C148.416 25.7327 149.163 25.8508 149.877 26.087L149.713 26.9991C148.973 26.7126 148.214 26.5694 147.437 26.5694C146.297 26.5694 145.432 27.0192 144.841 27.9187C144.319 28.7127 144.057 29.7705 144.057 31.0922C144.057 34.037 145.229 35.5094 147.574 35.5094C148.378 35.5094 149.132 35.3134 149.836 34.9215L150.02 35.7657Z" fill="white"/>
<path d="M157.774 32.3133C157.774 33.4691 157.484 34.4265 156.902 35.1853C156.293 35.9843 155.494 36.3838 154.503 36.3838C153.559 36.3838 152.827 36.0647 152.309 35.4265C151.764 34.7531 151.492 33.7606 151.492 32.449C151.492 31.3284 151.773 30.3962 152.337 29.6524C152.941 28.8634 153.743 28.469 154.742 28.469C155.637 28.469 156.343 28.7529 156.861 29.3208C157.47 29.9791 157.774 30.9766 157.774 32.3133ZM156.861 32.3586C156.861 31.3786 156.675 30.6198 156.302 30.0821C155.921 29.5293 155.369 29.2529 154.647 29.2529C154.024 29.2529 153.506 29.5042 153.093 30.0067C152.63 30.5746 152.398 31.3635 152.398 32.3736C152.398 33.3938 152.596 34.1827 152.991 34.7406C153.386 35.3034 153.942 35.5848 154.66 35.5848C155.283 35.5848 155.794 35.3285 156.193 34.8159C156.639 34.238 156.861 33.4189 156.861 32.3586Z" fill="white"/>
<path d="M164.139 36.2632V31.2957C164.139 29.9338 163.668 29.2529 162.728 29.2529C162.074 29.2529 161.538 29.5695 161.12 30.2027C160.702 30.8309 160.493 31.6324 160.493 32.6073V36.2632H159.614V28.5896H160.507C160.507 29.3032 160.466 29.9012 160.384 30.3836L160.411 30.3987C160.838 29.1122 161.674 28.469 162.919 28.469C164.318 28.469 165.018 29.2856 165.018 30.9188V36.2632H164.139Z" fill="white"/>
<path d="M171.505 34.0094C171.505 34.6878 171.255 35.2481 170.755 35.6903C170.228 36.1527 169.529 36.3838 168.656 36.3838C168.043 36.3838 167.528 36.3185 167.11 36.1878L167.239 35.2607C167.707 35.4567 168.232 35.5547 168.813 35.5547C169.336 35.5547 169.763 35.429 170.094 35.1778C170.43 34.9164 170.598 34.5722 170.598 34.1451C170.598 33.7079 170.414 33.3762 170.046 33.15C169.883 33.0495 169.481 32.8963 168.84 32.6902C168.282 32.5143 167.88 32.3133 167.634 32.0872C167.266 31.7555 167.082 31.2806 167.082 30.6625C167.082 30.0042 167.305 29.4791 167.75 29.0871C168.218 28.675 168.87 28.469 169.706 28.469C170.196 28.469 170.662 28.5242 171.103 28.6348L170.987 29.4715C170.51 29.3157 170.042 29.2378 169.583 29.2378C168.511 29.2378 167.975 29.675 167.975 30.5494C167.975 30.9866 168.159 31.3208 168.527 31.552C168.7 31.6625 169.104 31.8183 169.74 32.0193C170.303 32.2003 170.707 32.3988 170.953 32.6148C171.321 32.9415 171.505 33.4063 171.505 34.0094Z" fill="white"/>
<path d="M178.121 36.2632C178.121 35.5496 178.162 34.9516 178.244 34.4692L178.217 34.4541C177.79 35.7406 176.951 36.3838 175.702 36.3838C174.308 36.3838 173.61 35.5672 173.61 33.934V28.5896H174.489V33.5646C174.489 34.2481 174.587 34.7481 174.782 35.0647C175 35.4215 175.373 35.5999 175.9 35.5999C176.554 35.5999 177.09 35.2833 177.508 34.6501C177.926 34.027 178.135 33.2279 178.135 32.253V28.5896H179.014V36.2632H178.121Z" fill="white"/>
<path d="M181.76 36.2632V24.994H182.639V36.2632H181.76Z" fill="white"/>
<path d="M188.52 36.218C188.102 36.3185 187.659 36.3688 187.191 36.3688C186.537 36.3688 186.08 36.1929 185.821 35.8411C185.58 35.5094 185.46 34.9441 185.46 34.1451V29.366H183.872V28.5896H185.46V25.9965L186.325 25.7327V28.5896H188.465V29.366H186.325V33.6702C186.325 34.3988 186.403 34.8888 186.557 35.1401C186.707 35.3863 186.998 35.5094 187.429 35.5094C187.788 35.5094 188.111 35.4667 188.397 35.3813L188.52 36.218Z" fill="white"/>
<path d="M194.087 36.2632C194.087 35.4994 194.114 34.9391 194.169 34.5823L194.141 34.5672C193.964 35.0898 193.664 35.517 193.242 35.8486C192.788 36.2054 192.267 36.3838 191.681 36.3838C191.136 36.3838 190.689 36.2079 190.339 35.8562C189.98 35.4893 189.801 35.0019 189.801 34.3938C189.801 33.6099 190.162 32.9867 190.884 32.5244C191.638 32.042 192.701 31.8007 194.073 31.8007V31.3862C194.073 30.6424 193.955 30.1072 193.719 29.7806C193.469 29.4288 193.042 29.2529 192.438 29.2529C191.756 29.2529 191.064 29.4439 190.359 29.8258L190.148 29.0192C190.898 28.6524 191.704 28.469 192.567 28.469C194.157 28.469 194.952 29.3584 194.952 31.1374V33.8888C194.952 34.5471 194.961 35.3386 194.979 36.2632H194.087ZM194.073 32.5395C191.82 32.5395 190.693 33.1073 190.693 34.243C190.693 34.635 190.802 34.9541 191.02 35.2004C191.248 35.4567 191.543 35.5848 191.906 35.5848C192.529 35.5848 193.051 35.2833 193.473 34.6802C193.873 34.1174 194.073 33.4666 194.073 32.7279V32.5395Z" fill="white"/>
<path d="M202.08 36.2632V31.2957C202.08 29.9338 201.61 29.2529 200.669 29.2529C200.015 29.2529 199.479 29.5695 199.061 30.2027C198.643 30.8309 198.434 31.6324 198.434 32.6073V36.2632H197.555V28.5896H198.448C198.448 29.3032 198.407 29.9012 198.325 30.3836L198.352 30.3987C198.779 29.1122 199.615 28.469 200.86 28.469C202.259 28.469 202.959 29.2856 202.959 30.9188V36.2632H202.08Z" fill="white"/>
<path d="M210.052 35.9089C209.425 36.2054 208.703 36.3537 207.885 36.3537C205.905 36.3537 204.914 35.135 204.914 32.6978C204.914 31.4012 205.194 30.3836 205.753 29.6449C206.325 28.881 207.129 28.4991 208.165 28.4991C208.878 28.4991 209.493 28.6172 210.011 28.8534L209.814 29.675C209.205 29.4137 208.61 29.2831 208.028 29.2831C207.342 29.2831 206.804 29.5846 206.413 30.1876C206.036 30.7706 205.848 31.5394 205.848 32.4942C205.848 34.5245 206.588 35.5396 208.069 35.5396C208.705 35.5396 209.305 35.3989 209.868 35.1175L210.052 35.9089Z" fill="white"/>
<path d="M214.059 37.0472C213.659 38.2331 213.23 39.0623 212.771 39.5347C212.308 40.0171 211.694 40.2583 210.931 40.2583C210.727 40.2583 210.495 40.2282 210.236 40.1679L210.332 39.2709C210.554 39.3563 210.82 39.399 211.129 39.399C211.96 39.399 212.635 38.6678 213.153 37.2055L213.487 36.2632L210.809 28.5896H211.844L213.405 33.3159C213.664 34.1601 213.841 34.7506 213.936 35.0873H213.95C214.032 34.7355 214.263 33.9591 214.645 32.7581L215.987 28.5896H216.948L214.059 37.0472Z" fill="white"/>
</svg>
